HIERARCHY
ROOT hip
{
  OFFSET 5.70873 43.8894 -1.52928
  CHANNELS 6 Xposition Yposition Zposition Zrotation Xrotation Yrotation
  JOINT abdomen
  {
    OFFSET 0 5.99393 0.287273
    CHANNELS 6 Xposition Yposition Zposition Zrotation Xrotation Yrotation
    JOINT chest
    {
      OFFSET 0 6.65865 -0.856112
      CHANNELS 6 Xposition Yposition Zposition Zrotation Xrotation Yrotation
      JOINT neck
      {
        OFFSET 0 8.65624 -1.42685
        CHANNELS 6 Xposition Yposition Zposition Zrotation Xrotation Yrotation
        JOINT head
        {
          OFFSET 0 3.80999 -0.190247
          CHANNELS 6 Xposition Yposition Zposition Zrotation Xrotation Yrotation
          End Site
          {
            OFFSET 0 0 0
          }
        }
      }
      JOINT rCollar
      {
        OFFSET -1.4963 7.5744 -1.52136
        CHANNELS 6 Xposition Yposition Zposition Zrotation Xrotation Yrotation
        JOINT rShldr
        {
          OFFSET -5.47506 -0.905672 0.485692
          CHANNELS 6 Xposition Yposition Zposition Zrotation Xrotation Yrotation
          JOINT rForeArm
          {
            OFFSET -11.3069 -0.201091 0.618544
            CHANNELS 6 Xposition Yposition Zposition Zrotation Xrotation Yrotation
            JOINT rHand
            {
              OFFSET -9.61414 -0.254739 3.48553
              CHANNELS 6 Xposition Yposition Zposition Zrotation Xrotation Yrotation
              JOINT rThumb1
              {
                OFFSET 0.176263 -0.07068 1.26622
                CHANNELS 6 Xposition Yposition Zposition Zrotation Xrotation Yrotation
                JOINT rThumb2
                {
                  OFFSET -1.04683 -0.546484 1.82182
                  CHANNELS 6 Xposition Yposition Zposition Zrotation Xrotation Yrotation
                  JOINT rThumb3
                  {
                    OFFSET -0.993472 -0.621916 0.655506
                    CHANNELS 6 Xposition Yposition Zposition Zrotation Xrotation Yrotation
                    End Site
                    {
                      OFFSET -0.996134 -0.66263 0.644615
                    }
                  }
                }
              }
              JOINT rIndex1
              {
                OFFSET -2.64253 0.566363 2.4162
                CHANNELS 6 Xposition Yposition Zposition Zrotation Xrotation Yrotation
                JOINT rIndex2
                {
                  OFFSET -1.39394 -0.635138 0.899356
                  CHANNELS 6 Xposition Yposition Zposition Zrotation Xrotation Yrotation
                  JOINT rIndex3
                  {
                    OFFSET -0.622395 -0.856016 0.402182
                    CHANNELS 6 Xposition Yposition Zposition Zrotation Xrotation Yrotation
                    End Site
                    {
                      OFFSET -0.472476 -0.801802 0.34216
                    }
                  }
                }
              }
              JOINT rMid1
              {
                OFFSET -3.20814 0.514427 1.52547
                CHANNELS 6 Xposition Yposition Zposition Zrotation Xrotation Yrotation
                JOINT rMid2
                {
                  OFFSET -1.56545 -0.497974 0.68919
                  CHANNELS 6 Xposition Yposition Zposition Zrotation Xrotation Yrotation
                  JOINT rMid3
                  {
                    OFFSET -0.679943 -1.17582 0.444246
                    CHANNELS 6 Xposition Yposition Zposition Zrotation Xrotation Yrotation
                    End Site
                    {
                      OFFSET -0.343874 -0.941341 0.267611
                    }
                  }
                }
              }
              JOINT rRing1
              {
                OFFSET -3.47877 0.200518 0.597719
                CHANNELS 6 Xposition Yposition Zposition Zrotation Xrotation Yrotation
                JOINT rRing2
                {
                  OFFSET -1.28208 -0.53155 0.44672
                  CHANNELS 6 Xposition Yposition Zposition Zrotation Xrotation Yrotation
                  JOINT rRing3
                  {
                    OFFSET -0.710288 -0.970167 0.4032
                    CHANNELS 6 Xposition Yposition Zposition Zrotation Xrotation Yrotation
                    End Site
                    {
                      OFFSET -0.403228 -0.950952 0.378354
                    }
                  }
                }
              }
              JOINT rPinky1
              {
                OFFSET -3.42483 -0.278904 -0.240415
                CHANNELS 6 Xposition Yposition Zposition Zrotation Xrotation Yrotation
                JOINT rPinky2
                {
                  OFFSET -1.05787 -0.635999 0.156459
                  CHANNELS 6 Xposition Yposition Zposition Zrotation Xrotation Yrotation
                  JOINT rPinky3
                  {
                    OFFSET -0.42815 -0.754232 0.287187
                    CHANNELS 6 Xposition Yposition Zposition Zrotation Xrotation Yrotation
                    End Site
                    {
                      OFFSET -0.235717 -0.725605 0.279416
                    }
                  }
                }
              }
            }
          }
        }
      }
      JOINT lCollar
      {
        OFFSET 1.4963 7.5744 -1.52136
        CHANNELS 6 Xposition Yposition Zposition Zrotation Xrotation Yrotation
        JOINT lShldr
        {
          OFFSET 5.47506 -0.905672 0.485692
          CHANNELS 6 Xposition Yposition Zposition Zrotation Xrotation Yrotation
          JOINT lForeArm
          {
            OFFSET 11.3069 -0.201091 0.618544
            CHANNELS 6 Xposition Yposition Zposition Zrotation Xrotation Yrotation
            JOINT lHand
            {
              OFFSET 9.61414 -0.254739 3.48553
              CHANNELS 6 Xposition Yposition Zposition Zrotation Xrotation Yrotation
              JOINT lThumb1
              {
                OFFSET -0.176263 -0.07068 1.26622
                CHANNELS 6 Xposition Yposition Zposition Zrotation Xrotation Yrotation
                JOINT lThumb2
                {
                  OFFSET 1.04683 -0.546484 1.82182
                  CHANNELS 6 Xposition Yposition Zposition Zrotation Xrotation Yrotation
                  JOINT lThumb3
                  {
                    OFFSET 0.993472 -0.621916 0.655506
                    CHANNELS 6 Xposition Yposition Zposition Zrotation Xrotation Yrotation
                    End Site
                    {
                      OFFSET 0.996134 -0.66263 0.644615
                    }
                  }
                }
              }
              JOINT lIndex1
              {
                OFFSET 2.64253 0.566363 2.4162
                CHANNELS 6 Xposition Yposition Zposition Zrotation Xrotation Yrotation
                JOINT lIndex2
                {
                  OFFSET 1.39394 -0.635138 0.899356
                  CHANNELS 6 Xposition Yposition Zposition Zrotation Xrotation Yrotation
                  JOINT lIndex3
                  {
                    OFFSET 0.622395 -0.856016 0.402182
                    CHANNELS 6 Xposition Yposition Zposition Zrotation Xrotation Yrotation
                    End Site
                    {
                      OFFSET 0.472476 -0.801802 0.34216
                    }
                  }
                }
              }
              JOINT lMid1
              {
                OFFSET 3.20814 0.514427 1.52547
                CHANNELS 6 Xposition Yposition Zposition Zrotation Xrotation Yrotation
                JOINT lMid2
                {
                  OFFSET 1.56545 -0.497974 0.68919
                  CHANNELS 6 Xposition Yposition Zposition Zrotation Xrotation Yrotation
                  JOINT lMid3
                  {
                    OFFSET 0.679943 -1.17582 0.444246
                    CHANNELS 6 Xposition Yposition Zposition Zrotation Xrotation Yrotation
                    End Site
                    {
                      OFFSET 0.343874 -0.941341 0.267611
                    }
                  }
                }
              }
              JOINT lRing1
              {
                OFFSET 3.47877 0.200518 0.597719
                CHANNELS 6 Xposition Yposition Zposition Zrotation Xrotation Yrotation
                JOINT lRing2
                {
                  OFFSET 1.28208 -0.53155 0.44672
                  CHANNELS 6 Xposition Yposition Zposition Zrotation Xrotation Yrotation
                  JOINT lRing3
                  {
                    OFFSET 0.710288 -0.970167 0.4032
                    CHANNELS 6 Xposition Yposition Zposition Zrotation Xrotation Yrotation
                    End Site
                    {
                      OFFSET 0.403228 -0.950952 0.378354
                    }
                  }
                }
              }
              JOINT lPinky1
              {
                OFFSET 3.42483 -0.278904 -0.240415
                CHANNELS 6 Xposition Yposition Zposition Zrotation Xrotation Yrotation
                JOINT lPinky2
                {
                  OFFSET 1.05787 -0.635999 0.156459
                  CHANNELS 6 Xposition Yposition Zposition Zrotation Xrotation Yrotation
                  JOINT lPinky3
                  {
                    OFFSET 0.42815 -0.754232 0.287187
                    CHANNELS 6 Xposition Yposition Zposition Zrotation Xrotation Yrotation
                    End Site
                    {
                      OFFSET 0.235717 -0.725605 0.279416
                    }
                  }
                }
              }
            }
          }
        }
      }
    }
  }
  JOINT rThigh
  {
    OFFSET -4.17848 -1.02486 0.046356
    CHANNELS 6 Xposition Yposition Zposition Zrotation Xrotation Yrotation
    JOINT rShin
    {
      OFFSET 1.27155 -17.465 -0.237699
      CHANNELS 6 Xposition Yposition Zposition Zrotation Xrotation Yrotation
      JOINT rFoot
      {
        OFFSET 0.529163 -17.3815 -1.19582
        CHANNELS 6 Xposition Yposition Zposition Zrotation Xrotation Yrotation
        JOINT rToe
        {
          OFFSET -0.711591 -4.4863 4.0596
          CHANNELS 6 Xposition Yposition Zposition Zrotation Xrotation Yrotation
          End Site
          {
            OFFSET -0.869915 -1.10655 1.99006
          }
        }
      }
    }
  }
  JOINT lThigh
  {
    OFFSET 4.17848 -1.02486 0.046356
    CHANNELS 6 Xposition Yposition Zposition Zrotation Xrotation Yrotation
    JOINT lShin
    {
      OFFSET -1.27155 -17.465 -0.237699
      CHANNELS 6 Xposition Yposition Zposition Zrotation Xrotation Yrotation
      JOINT lFoot
      {
        OFFSET -0.529163 -17.3815 -1.19582
        CHANNELS 6 Xposition Yposition Zposition Zrotation Xrotation Yrotation
        JOINT lToe
        {
          OFFSET 0.711591 -4.4863 4.0596
          CHANNELS 6 Xposition Yposition Zposition Zrotation Xrotation Yrotation
          End Site
          {
            OFFSET 0.869915 -1.10655 1.99006
          }
        }
      }
    }
  }
}
MOTION
Frames:	4
Frame Time:	0.0333333
-19.0227 58.9459 1.48953 33.8407 -12.4701 -34.8072 0 5.99393 0.287273 -8.28198 -3.01122 18.7764 3.55271e-015 6.65865 -0.856112 -15.2092 -8.50036 37.0745 -3.55271e-015 8.65624 -1.42685 2.91138 -15.2925 30.3179 0 3.80999 -0.190247 7.88569 -1.38359 14.3851 -1.4963 7.5744 -1.52136 -20.7601 -1.02786 17.2636 -5.47506 -0.905672 0.485692 60.4018 23.2703 70.5307 -11.3069 -0.201091 0.618544 25.8158 16.8517 59.4513 -9.61414 -0.254739 3.48553 38.7843 -35.101 14.945 0.176263 -0.07068 1.26622 5.36696 12.623 2.54955 -1.04683 -0.546484 1.82182 1.75684 -1.6929 5.04768 -0.993472 -0.621916 0.655506 1.92712 -1.84178 5.51802 -2.64253 0.566363 2.4162 -10.8764 -0.892317 6.04737 -1.39394 -0.635138 0.899356 -7.09479 -1.95413 0.92702 -0.622395 -0.856016 0.402182 -1.09202 -0.292462 0.15791 -3.20814 0.514427 1.52547 -0.0664717 3.24045 -0.143092 -1.56545 -0.497974 0.68919 7.26994 2.15517 -1.16943 -0.679943 -1.17582 0.444246 -5.93041 -1.866 0.749294 -3.47877 0.200518 0.597719 0.214313 1.49447 -4.38527 -1.28208 -0.53155 0.44672 9.35621 3.06652 -1.9538 -0.710288 -0.970167 0.4032 -3.67797 -1.29593 0.631493 -3.42483 -0.278904 -0.240415 6.80128 0.780874 -12.5526 -1.05787 -0.635999 0.156459 -0.957407 -0.360718 0.158574 -0.42815 -0.754232 0.287187 -3.42775 -1.30397 0.540406 1.4963 7.5744 -1.52136 30.0444 0.468272 18.5811 5.47506 -0.905672 0.485692 -35.7528 -19.082 6.42116 11.3069 -0.201091 0.618544 -44.4134 16.2998 -103.348 9.61414 -0.254739 3.48553 -55.6646 -67.966 -32.8339 -0.176263 -0.07068 1.26622 2.97354 2.87646 10.416 1.04683 -0.546484 1.82182 -20.656 15.2074 -7.31381 0.993472 -0.621916 0.655506 2.23713 0.750743 4.01843 2.64253 0.566363 2.4162 -3.75373 3.45558 16.3236 1.39394 -0.635138 0.899356 -2.12467 0.693898 0.860535 0.622395 -0.856016 0.402182 -38.0504 6.76653 17.5775 3.20814 0.514427 1.52547 -11.9031 6.98736 6.53836 1.56545 -0.497974 0.68919 -15.5185 4.89448 6.82711 0.679943 -1.17582 0.444246 -11.7323 3.89099 5.06662 3.47877 0.200518 0.597719 -10.7921 3.45069 4.73525 1.28208 -0.53155 0.44672 -14.8699 5.17485 7.34129 0.710288 -0.970167 0.4032 -11.1495 4.08341 5.4132 3.42483 -0.278904 -0.240415 -11.6491 3.37762 3.67388 1.05787 -0.635999 0.156459 -12.6923 4.97537 6.12164 0.42815 -0.754232 0.287187 -11.3446 4.5251 5.43431 -4.17848 -1.02486 0.046356 6.36942 50.2722 3.18436 1.27155 -17.465 -0.237699 -2.5737 -3.19297 1.96085 0.529163 -17.3815 -1.19582 13.1204 11.1215 -18.4837 -0.711591 -4.4863 4.0596 3.58804 23.7123 -1.39966 4.17848 -1.02486 0.046356 11.9901 4.6883 -30.9503 -1.27155 -17.465 -0.237699 0.0936373 3.49752 -0.0970904 -0.529163 -17.3815 -1.19582 -2.53534 14.6999 -5.29907 0.711591 -4.4863 4.0596 -0.305163 5.40269 -0.51593 
-18.6982 59.03 2.3044 35.5609 -7.34606 -28.2268 -7.10543e-015 5.99393 0.287273 -8.66915 -4.19611 17.9434 5.32907e-015 6.65865 -0.856112 -15.7144 -10.8217 35.2815 -3.55271e-015 8.65624 -1.42685 3.06605 -14.8086 29.8569 0 3.80999 -0.190247 7.3713 -0.230405 14.1376 -1.4963 7.5744 -1.52136 -25.1952 -0.707939 12.9682 -5.47506 -0.905672 0.485692 58.0781 19.0297 71.3867 -11.3069 -0.201091 0.618544 23.8776 10.6512 62.5197 -9.61414 -0.254739 3.48553 42.7469 -28.6551 11.8745 0.176263 -0.07068 1.26622 5.36148 12.6301 2.55524 -1.04683 -0.546484 1.82182 1.75715 -1.69315 5.04867 -0.993472 -0.621916 0.655506 1.92712 -1.8418 5.51803 -2.64253 0.566363 2.4162 -10.8764 -0.892285 6.04737 -1.39394 -0.635138 0.899356 -7.09478 -1.95415 0.927021 -0.622395 -0.856016 0.402182 -1.09201 -0.292463 0.157908 -3.20814 0.514427 1.52547 -0.0652553 3.23982 -0.143557 -1.56545 -0.497974 0.68919 7.26996 2.15511 -1.16946 -0.679943 -1.17582 0.444246 -5.93042 -1.8659 0.74943 -3.47877 0.200518 0.597719 0.214317 1.49444 -4.3853 -1.28208 -0.53155 0.44672 9.35622 3.06658 -1.95372 -0.710288 -0.970167 0.4032 -3.67796 -1.29592 0.631472 -3.42483 -0.278904 -0.240415 6.80128 0.780798 -12.5526 -1.05787 -0.635999 0.156459 -0.957424 -0.360593 0.158693 -0.42815 -0.754232 0.287187 -3.42497 -1.30291 0.53996 1.4963 7.5744 -1.52136 29.638 0.383669 17.7368 5.47506 -0.905672 0.485692 -35.9418 -19.7976 4.78539 11.3069 -0.201091 0.618544 -44.3589 16.3572 -104.503 9.61414 -0.254739 3.48553 -56.8722 -69.3123 -32.1728 -0.176263 -0.07068 1.26622 2.97349 2.87644 10.416 1.04683 -0.546484 1.82182 -20.656 15.2074 -7.31381 0.993472 -0.621916 0.655506 2.23713 0.750741 4.01843 2.64253 0.566363 2.4162 -3.75368 3.45573 16.3236 1.39394 -0.635138 0.899356 -2.12459 0.694084 0.860469 0.622395 -0.856016 0.402182 -38.0504 6.76653 17.5775 3.20814 0.514427 1.52547 -11.9031 6.98733 6.53836 1.56545 -0.497974 0.68919 -15.5185 4.89446 6.82711 0.679943 -1.17582 0.444246 -11.7323 3.89093 5.06665 3.47877 0.200518 0.597719 -10.7921 3.45068 4.73525 1.28208 -0.53155 0.44672 -14.87 5.17485 7.34129 0.710288 -0.970167 0.4032 -11.1495 4.08338 5.41322 3.42483 -0.278904 -0.240415 -11.6491 3.37761 3.67388 1.05787 -0.635999 0.156459 -12.6923 4.97536 6.12165 0.42815 -0.754232 0.287187 -11.3448 4.52503 5.43426 -4.17848 -1.02486 0.046356 5.92651 48.4134 3.84973 1.27155 -17.465 -0.237699 -2.41232 -3.22051 1.99056 0.529163 -17.3815 -1.19582 14.5235 11.8762 -18.2804 -0.711591 -4.4863 4.0596 3.22442 21.6144 -1.20309 4.17848 -1.02486 0.046356 12.0641 2.36046 -30.8686 -1.27155 -17.465 -0.237699 0.0803758 3.17622 -0.121545 -0.529163 -17.3815 -1.19582 -3.6052 15.1963 -5.79161 0.711591 -4.4863 4.0596 -0.428801 6.4502 -0.562199 
-18.2987 59.0998 3.10088 36.8318 -2.76497 -21.8837 0 5.99393 0.287273 -9.04108 -5.11366 17.2081 1.77636e-015 6.65865 -0.856112 -16.2908 -12.6267 33.699 3.55271e-015 8.65624 -1.42685 3.05311 -13.7474 29.6378 3.55271e-015 3.80999 -0.190247 6.73859 0.81186 14.0321 -1.4963 7.5744 -1.52136 -28.7627 -0.462959 9.8208 -5.47506 -0.905672 0.485692 55.7741 13.3615 71.8119 -11.3069 -0.201091 0.618544 19.9477 4.73772 62.7131 -9.61414 -0.254739 3.48553 37.0473 -31.7634 9.17827 0.176263 -0.07068 1.26622 5.356 12.6372 2.56092 -1.04683 -0.546484 1.82182 1.75754 -1.69353 5.04964 -0.993472 -0.621916 0.655506 1.92712 -1.84179 5.51802 -2.64253 0.566363 2.4162 -10.8764 -0.892297 6.04737 -1.39394 -0.635138 0.899356 -7.09479 -1.95411 0.927022 -0.622395 -0.856016 0.402182 -1.09201 -0.292462 0.15791 -3.20814 0.514427 1.52547 -0.0640744 3.23916 -0.144018 -1.56545 -0.497974 0.68919 7.26995 2.15517 -1.16944 -0.679943 -1.17582 0.444246 -5.93042 -1.86586 0.74946 -3.47877 0.200518 0.597719 0.214312 1.49442 -4.38533 -1.28208 -0.53155 0.44672 9.35619 3.06668 -1.95368 -0.710288 -0.970167 0.4032 -3.67795 -1.29593 0.631474 -3.42483 -0.278904 -0.240415 6.80125 0.780808 -12.5527 -1.05787 -0.635999 0.156459 -0.957434 -0.360551 0.158761 -0.42815 -0.754232 0.287187 -3.42223 -1.30186 0.539559 1.4963 7.5744 -1.52136 29.232 0.305816 16.8844 5.47506 -0.905672 0.485692 -36.2405 -20.2751 2.88155 11.3069 -0.201091 0.618544 -44.5985 16.2262 -104.532 9.61414 -0.254739 3.48553 -58.8441 -70.1558 -32.4278 -0.176263 -0.07068 1.26622 2.97347 2.8764 10.416 1.04683 -0.546484 1.82182 -20.656 15.2074 -7.3138 0.993472 -0.621916 0.655506 2.23714 0.750725 4.01843 2.64253 0.566363 2.4162 -3.75368 3.45572 16.3236 1.39394 -0.635138 0.899356 -2.1246 0.69407 0.860469 0.622395 -0.856016 0.402182 -38.0504 6.76653 17.5775 3.20814 0.514427 1.52547 -11.9031 6.98726 6.53834 1.56545 -0.497974 0.68919 -15.5185 4.89449 6.82711 0.679943 -1.17582 0.444246 -11.7323 3.89085 5.06671 3.47877 0.200518 0.597719 -10.7921 3.45068 4.73526 1.28208 -0.53155 0.44672 -14.8699 5.17484 7.34129 0.710288 -0.970167 0.4032 -11.1495 4.08334 5.41325 3.42483 -0.278904 -0.240415 -11.6491 3.37756 3.67387 1.05787 -0.635999 0.156459 -12.6923 4.97536 6.12164 0.42815 -0.754232 0.287187 -11.3448 4.52497 5.43433 -4.17848 -1.02486 0.046356 5.12645 47.3073 4.77699 1.27155 -17.465 -0.237699 -2.25832 -3.24587 1.93277 0.529163 -17.3815 -1.19582 14.4399 12.9623 -17.6274 -0.711591 -4.4863 4.0596 3.31 22.1155 -1.24841 4.17848 -1.02486 0.046356 12.094 0.654453 -30.6288 -1.27155 -17.465 -0.237699 0.0803343 2.7804 -0.0728093 -0.529163 -17.3815 -1.19582 -3.81614 15.2416 -5.23956 0.711591 -4.4863 4.0596 -0.40121 6.21587 -0.552057 
-17.8369 59.1591 3.88712 37.3212 0.92854 -15.9473 0 5.99393 0.287273 -9.29248 -5.66193 16.7671 5.32907e-015 6.65865 -0.856112 -16.7084 -13.7108 32.7421 0 8.65624 -1.42685 3.10927 -12.4862 29.8112 -3.55271e-015 3.80999 -0.190247 6.06109 1.81251 13.8221 -1.4963 7.5744 -1.52136 -29.8029 -0.379898 8.83706 -5.47506 -0.905672 0.485692 53.9138 8.79332 73.8511 -11.3069 -0.201091 0.618544 16.1626 -3.10024 62.3078 -9.61414 -0.254739 3.48553 38.4197 -41.8201 14.0083 0.176263 -0.07068 1.26622 5.35056 12.6443 2.5666 -1.04683 -0.546484 1.82182 1.75791 -1.69384 5.05063 -0.993472 -0.621916 0.655506 1.92711 -1.8418 5.51803 -2.64253 0.566363 2.4162 -10.8764 -0.892264 6.04737 -1.39394 -0.635138 0.899356 -7.09479 -1.9541 0.927038 -0.622395 -0.856016 0.402182 -1.09202 -0.292441 0.157912 -3.20814 0.514427 1.52547 -0.0628887 3.23848 -0.14448 -1.56545 -0.497974 0.68919 7.26992 2.15525 -1.16942 -0.679943 -1.17582 0.444246 -5.93042 -1.86583 0.749489 -3.47877 0.200518 0.597719 0.21429 1.49442 -4.38535 -1.28208 -0.53155 0.44672 9.35619 3.06674 -1.95364 -0.710288 -0.970167 0.4032 -3.67795 -1.29592 0.631495 -3.42483 -0.278904 -0.240415 6.80122 0.780815 -12.5527 -1.05787 -0.635999 0.156459 -0.957453 -0.360479 0.158761 -0.42815 -0.754232 0.287187 -3.41948 -1.3008 0.539163 1.4963 7.5744 -1.52136 28.8273 0.234817 16.0253 5.47506 -0.905672 0.485692 -36.4908 -20.6856 0.841136 11.3069 -0.201091 0.618544 -44.9969 15.9916 -103.899 9.61414 -0.254739 3.48553 -62.0995 -70.6131 -34.0482 -0.176263 -0.07068 1.26622 2.97352 2.87651 10.416 1.04683 -0.546484 1.82182 -20.6561 15.2073 -7.31378 0.993472 -0.621916 0.655506 2.23713 0.750707 4.01844 2.64253 0.566363 2.4162 -3.75365 3.45569 16.3236 1.39394 -0.635138 0.899356 -2.12459 0.694041 0.860475 0.622395 -0.856016 0.402182 -38.0504 6.76652 17.5775 3.20814 0.514427 1.52547 -11.903 6.98739 6.53838 1.56545 -0.497974 0.68919 -15.5185 4.89447 6.82711 0.679943 -1.17582 0.444246 -11.7323 3.89102 5.06659 3.47877 0.200518 0.597719 -10.7921 3.45065 4.73525 1.28208 -0.53155 0.44672 -14.8699 5.17483 7.3413 0.710288 -0.970167 0.4032 -11.1495 4.08342 5.41317 3.42483 -0.278904 -0.240415 -11.6491 3.37746 3.67382 1.05787 -0.635999 0.156459 -12.6923 4.97535 6.12165 0.42815 -0.754232 0.287187 -11.3449 4.52489 5.43428 -4.17848 -1.02486 0.046356 4.10711 47.4387 5.93311 1.27155 -17.465 -0.237699 -2.09411 -3.24011 1.76877 0.529163 -17.3815 -1.19582 12.1694 13.9921 -16.8263 -0.711591 -4.4863 4.0596 3.41483 22.7228 -1.30474 4.17848 -1.02486 0.046356 12.1056 0.263954 -30.3755 -1.27155 -17.465 -0.237699 0.0731766 2.11487 -0.028605 -0.529163 -17.3815 -1.19582 -3.292 15.2593 -5.23283 0.711591 -4.4863 4.0596 -0.435575 6.50777 -0.564711 
